# xmcd
#
# Track frame offsets: 
#        150
#        8807
#        23105
#        35065
#        38235
#        46782
#        66035
#        91122
#        103372
#        117825
#        137925
#        146752
#        165772
#
# Disc length: 2477 seconds
#
# Revision: 1
# Processed by: cddbd v1.5.2PL0 Copyright (c) Steve Scherf et al.
# Submitted via: ExactAudioCopy v0.90b4
#
DISCID=a809ab0d
DTITLE=Cowboy - Reach for the sky
DYEAR=1971
DGENRE=Country
TTITLE0=Opening
TTITLE1=Livin' In The Country
TTITLE2=Song Of Love And Peace
TTITLE3=Amelia's Earache
TTITLE4=Pick Your Nose
TTITLE5=Pretty Friend
TTITLE6=Everything Here
TTITLE7=Stick Together
TTITLE8=Use Your Situation
TTITLE9=It's Time
TTITLE10=Honey Ain't Nowhere
TTITLE11=Rip and Snort
TTITLE12=Josephine, beyond compare
EXTD=
EXTT0=
EXTT1=
EXTT2=
EXTT3=
EXTT4=
EXTT5=
EXTT6=
EXTT7=
EXTT8=
EXTT9=
EXTT10=
EXTT11=
EXTT12=
PLAYORDER=
